<?xml version="1.0" standalone="no"?>
<svg xmlns="http://www.w3.org/2000/svg" width="500" height="500"><defs><clipPath id="clip-path-dot-color"><circle cx="34" cy="130" r="6" transform="rotate(0,34,130)"/><path d="M 28 160v 12h 6a 6 6, 0, 0, 0, 0 -12" transform="rotate(-90,34,166)"/><path d="M 28 172v 12h 12v -6a 6 6, 0, 0, 0, -6 -6" transform="rotate(180,34,178)"/><path d="M 28 208v 12h 12v -6a 6 6, 0, 0, 0, -6 -6" transform="rotate(-90,34,214)"/><path d="M 28 220v 12h 12v -6a 6 6, 0, 0, 0, -6 -6" transform="rotate(180,34,226)"/><circle cx="34" cy="250" r="6" transform="rotate(0,34,250)"/><path d="M 28 328v 12h 6a 6 6, 0, 0, 0, 0 -12" transform="rotate(180,34,334)"/><path d="M 40 148v 12h 6a 6 6, 0, 0, 0, 0 -12" transform="rotate(180,46,154)"/><rect x="40" y="172" width="12" height="12" transform="rotate(0,46,178)"/><path d="M 40 184v 12h 6a 6 6, 0, 0, 0, 0 -12" transform="rotate(90,46,190)"/><rect x="40" y="208" width="12" height="12" transform="rotate(0,46,214)"/><rect x="40" y="220" width="12" height="12" transform="rotate(0,46,226)"/><path d="M 40 232v 12h 6a 6 6, 0, 0, 0, 0 -12" transform="rotate(90,46,238)"/><path d="M 40 280v 12h 12v -6a 6 6, 0, 0, 0, -6 -6" transform="rotate(-90,46,286)"/><rect x="40" y="292" width="12" height="12" transform="rotate(0,46,298)"/><rect x="40" y="304" width="12" height="12" transform="rotate(0,46,310)"/><rect x="40" y="316" width="12" height="12" transform="rotate(0,46,322)"/><rect x="40" y="328" width="12" height="12" transform="rotate(0,46,334)"/><rect x="40" y="340" width="12" height="12" transform="rotate(0,46,346)"/><path d="M 40 352v 12h 12v -6a 6 6, 0, 0, 0, -6 -6" transform="rotate(180,46,358)"/><path d="M 52 148v 12h 6a 6 6, 0, 0, 0, 0 -12" transform="rotate(0,58,154)"/><path d="M 52 172v 12h 6a 6 6, 0, 0, 0, 0 -12" transform="rotate(0,58,178)"/><rect x="52" y="208" width="12" height="12" transform="rotate(0,58,214)"/><path d="M 52 268v 12h 6a 6 6, 0, 0, 0, 0 -12" transform="rotate(-90,58,274)"/><rect x="52" y="280" width="12" height="12" transform="rotate(0,58,286)"/><rect x="52" y="292" width="12" height="12" transform="rotate(0,58,298)"/><rect x="52" y="304" width="12" height="12" transform="rotate(0,58,310)"/><rect x="52" y="352" width="12" height="12" transform="rotate(0,58,358)"/><path d="M 52 364v 12h 6a 6 6, 0, 0, 0, 0 -12" transform="rotate(90,58,370)"/><rect x="64" y="208" width="12" height="12" transform="rotate(0,70,214)"/><rect x="64" y="220" width="12" height="12" transform="rotate(0,70,226)"/><rect x="64" y="232" width="12" height="12" transform="rotate(0,70,238)"/><path d="M 64 244v 12h 12v -6a 6 6, 0, 0, 0, -6 -6" transform="rotate(180,70,250)"/><rect x="64" y="292" width="12" height="12" transform="rotate(0,70,298)"/><rect x="64" y="304" width="12" height="12" transform="rotate(0,70,310)"/><rect x="64" y="316" width="12" height="12" transform="rotate(0,70,322)"/><path d="M 64 328v 12h 12v -6a 6 6, 0, 0, 0, -6 -6" transform="rotate(180,70,334)"/><path d="M 64 352v 12h 6a 6 6, 0, 0, 0, 0 -12" transform="rotate(0,70,358)"/><path d="M 76 124v 12h 12v -6a 6 6, 0, 0, 0, -6 -6" transform="rotate(-90,82,130)"/><rect x="76" y="136" width="12" height="12" transform="rotate(0,82,142)"/><rect x="76" y="148" width="12" height="12" transform="rotate(0,82,154)"/><rect x="76" y="160" width="12" height="12" transform="rotate(0,82,166)"/><path d="M 76 172v 12h 6a 6 6, 0, 0, 0, 0 -12" transform="rotate(90,82,178)"/><path d="M 76 196v 12h 6a 6 6, 0, 0, 0, 0 -12" transform="rotate(-90,82,202)"/><rect x="76" y="208" width="12" height="12" transform="rotate(0,82,214)"/><path d="M 76 232v 12h 12v -6a 6 6, 0, 0, 0, -6 -6" transform="rotate(0,82,238)"/><rect x="76" y="244" width="12" height="12" transform="rotate(0,82,250)"/><path d="M 76 256v 12h 12v -6a 6 6, 0, 0, 0, -6 -6" transform="rotate(180,82,262)"/><rect x="76" y="292" width="12" height="12" transform="rotate(0,82,298)"/><path d="M 76 304v 12h 12v -6a 6 6, 0, 0, 0, -6 -6" transform="rotate(90,82,310)"/><rect x="76" y="328" width="12" height="12" transform="rotate(0,82,334)"/><rect x="88" y="124" width="12" height="12" transform="rotate(0,94,130)"/><rect x="88" y="148" width="12" height="12" transform="rotate(0,94,154)"/><circle cx="94" cy="190" r="6" transform="rotate(0,94,190)"/><path d="M 88 208v 12h 6a 6 6, 0, 0, 0, 0 -12" transform="rotate(0,94,214)"/><rect x="88" y="244" width="12" height="12" transform="rotate(0,94,250)"/><path d="M 88 256v 12h 12v -6a 6 6, 0, 0, 0, -6 -6" transform="rotate(90,94,262)"/><rect x="88" y="292" width="12" height="12" transform="rotate(0,94,298)"/><path d="M 88 316v 12h 12v -6a 6 6, 0, 0, 0, -6 -6" transform="rotate(-90,94,322)"/><rect x="88" y="328" width="12" height="12" transform="rotate(0,94,334)"/><rect x="88" y="340" width="12" height="12" transform="rotate(0,94,346)"/><rect x="88" y="352" width="12" height="12" transform="rotate(0,94,358)"/><path d="M 88 364v 12h 12v -6a 6 6, 0, 0, 0, -6 -6" transform="rotate(180,94,370)"/><path d="M 100 124v 12h 6a 6 6, 0, 0, 0, 0 -12" transform="rotate(0,106,130)"/><rect x="100" y="148" width="12" height="12" transform="rotate(0,106,154)"/><circle cx="106" cy="178" r="6" transform="rotate(0,106,178)"/><circle cx="106" cy="202" r="6" transform="rotate(0,106,202)"/><circle cx="106" cy="226" r="6" transform="rotate(0,106,226)"/><path d="M 100 244v 12h 6a 6 6, 0, 0, 0, 0 -12" transform="rotate(0,106,250)"/><path d="M 100 268v 12h 6a 6 6, 0, 0, 0, 0 -12" transform="rotate(180,106,274)"/><rect x="100" y="292" width="12" height="12" transform="rotate(0,106,298)"/><rect x="100" y="316" width="12" height="12" transform="rotate(0,106,322)"/><path d="M 100 340v 12h 6a 6 6, 0, 0, 0, 0 -12" transform="rotate(0,106,346)"/><rect x="100" y="364" width="12" height="12" transform="rotate(0,106,370)"/><path d="M 112 136v 12h 12v -6a 6 6, 0, 0, 0, -6 -6" transform="rotate(-90,118,142)"/><rect x="112" y="148" width="12" height="12" transform="rotate(0,118,154)"/><path d="M 112 160v 12h 6a 6 6, 0, 0, 0, 0 -12" transform="rotate(90,118,166)"/><path d="M 112 184v 12h 6a 6 6, 0, 0, 0, 0 -12" transform="rotate(180,118,190)"/><path d="M 112 232v 12h 6a 6 6, 0, 0, 0, 0 -12" transform="rotate(180,118,238)"/><path d="M 112 256v 12h 12v -6a 6 6, 0, 0, 0, -6 -6" transform="rotate(-90,118,262)"/><rect x="112" y="268" width="12" height="12" transform="rotate(0,118,274)"/><rect x="112" y="280" width="12" height="12" transform="rotate(0,118,286)"/><rect x="112" y="292" width="12" height="12" transform="rotate(0,118,298)"/><rect x="112" y="304" width="12" height="12" transform="rotate(0,118,310)"/><rect x="112" y="316" width="12" height="12" transform="rotate(0,118,322)"/><path d="M 112 328v 12h 6a 6 6, 0, 0, 0, 0 -12" transform="rotate(90,118,334)"/><rect x="112" y="364" width="12" height="12" transform="rotate(0,118,370)"/><path d="M 124 40v 12h 6a 6 6, 0, 0, 0, 0 -12" transform="rotate(-90,130,46)"/><rect x="124" y="52" width="12" height="12" transform="rotate(0,130,58)"/><rect x="124" y="64" width="12" height="12" transform="rotate(0,130,70)"/><rect x="124" y="76" width="12" height="12" transform="rotate(0,130,82)"/><rect x="124" y="88" width="12" height="12" transform="rotate(0,130,94)"/><rect x="124" y="100" width="12" height="12" transform="rotate(0,130,106)"/><path d="M 124 112v 12h 6a 6 6, 0, 0, 0, 0 -12" transform="rotate(90,130,118)"/><path d="M 124 136v 12h 6a 6 6, 0, 0, 0, 0 -12" transform="rotate(0,130,142)"/><path d="M 124 172v 12h 6a 6 6, 0, 0, 0, 0 -12" transform="rotate(-90,130,178)"/><rect x="124" y="184" width="12" height="12" transform="rotate(0,130,190)"/><path d="M 124 196v 12h 12v -6a 6 6, 0, 0, 0, -6 -6" transform="rotate(180,130,202)"/><path d="M 124 220v 12h 6a 6 6, 0, 0, 0, 0 -12" transform="rotate(-90,130,226)"/><rect x="124" y="232" width="12" height="12" transform="rotate(0,130,238)"/><rect x="124" y="244" width="12" height="12" transform="rotate(0,130,250)"/><rect x="124" y="256" width="12" height="12" transform="rotate(0,130,262)"/><rect x="124" y="268" width="12" height="12" transform="rotate(0,130,274)"/><path d="M 124 292v 12h 6a 6 6, 0, 0, 0, 0 -12" transform="rotate(0,130,298)"/><path d="M 124 316v 12h 6a 6 6, 0, 0, 0, 0 -12" transform="rotate(0,130,322)"/><circle cx="130" cy="346" r="6" transform="rotate(0,130,346)"/><path d="M 124 364v 12h 6a 6 6, 0, 0, 0, 0 -12" transform="rotate(0,130,370)"/><path d="M 124 400v 12h 12v -6a 6 6, 0, 0, 0, -6 -6" transform="rotate(-90,130,406)"/><path d="M 124 412v 12h 12v -6a 6 6, 0, 0, 0, -6 -6" transform="rotate(180,130,418)"/><circle cx="130" cy="466" r="6" transform="rotate(0,130,466)"/><path d="M 136 184v 12h 12v -6a 6 6, 0, 0, 0, -6 -6" transform="rotate(0,142,190)"/><rect x="136" y="196" width="12" height="12" transform="rotate(0,142,202)"/><path d="M 136 208v 12h 12v -6a 6 6, 0, 0, 0, -6 -6" transform="rotate(180,142,214)"/><rect x="136" y="232" width="12" height="12" transform="rotate(0,142,238)"/><rect x="136" y="268" width="12" height="12" transform="rotate(0,142,274)"/><path d="M 136 280v 12h 6a 6 6, 0, 0, 0, 0 -12" transform="rotate(90,142,286)"/><circle cx="142" cy="310" r="6" transform="rotate(0,142,310)"/><path d="M 136 328v 12h 6a 6 6, 0, 0, 0, 0 -12" transform="rotate(180,142,334)"/><path d="M 136 352v 12h 6a 6 6, 0, 0, 0, 0 -12" transform="rotate(180,142,358)"/><path d="M 136 388v 12h 12v -6a 6 6, 0, 0, 0, -6 -6" transform="rotate(-90,142,394)"/><rect x="136" y="400" width="12" height="12" transform="rotate(0,142,406)"/><rect x="136" y="412" width="12" height="12" transform="rotate(0,142,418)"/><path d="M 136 424v 12h 6a 6 6, 0, 0, 0, 0 -12" transform="rotate(90,142,430)"/><path d="M 148 40v 12h 6a 6 6, 0, 0, 0, 0 -12" transform="rotate(180,154,46)"/><path d="M 148 64v 12h 12v -6a 6 6, 0, 0, 0, -6 -6" transform="rotate(-90,154,70)"/><rect x="148" y="76" width="12" height="12" transform="rotate(0,154,82)"/><rect x="148" y="88" width="12" height="12" transform="rotate(0,154,94)"/><path d="M 148 100v 12h 6a 6 6, 0, 0, 0, 0 -12" transform="rotate(90,154,106)"/><path d="M 148 136v 12h 12v -6a 6 6, 0, 0, 0, -6 -6" transform="rotate(-90,154,142)"/><path d="M 148 148v 12h 6a 6 6, 0, 0, 0, 0 -12" transform="rotate(90,154,154)"/><rect x="148" y="208" width="12" height="12" transform="rotate(0,154,214)"/><path d="M 148 232v 12h 12v -6a 6 6, 0, 0, 0, -6 -6" transform="rotate(0,154,238)"/><path d="M 148 244v 12h 6a 6 6, 0, 0, 0, 0 -12" transform="rotate(90,154,250)"/><rect x="148" y="268" width="12" height="12" transform="rotate(0,154,274)"/><path d="M 148 328v 12h 12v -6a 6 6, 0, 0, 0, -6 -6" transform="rotate(0,154,334)"/><rect x="148" y="340" width="12" height="12" transform="rotate(0,154,346)"/><rect x="148" y="352" width="12" height="12" transform="rotate(0,154,358)"/><path d="M 148 364v 12h 6a 6 6, 0, 0, 0, 0 -12" transform="rotate(90,154,370)"/><rect x="148" y="388" width="12" height="12" transform="rotate(0,154,394)"/><rect x="148" y="412" width="12" height="12" transform="rotate(0,154,418)"/><path d="M 148 448v 12h 12v -6a 6 6, 0, 0, 0, -6 -6" transform="rotate(-90,154,454)"/><path d="M 148 460v 12h 12v -6a 6 6, 0, 0, 0, -6 -6" transform="rotate(180,154,466)"/><path d="M 160 28v 12h 6a 6 6, 0, 0, 0, 0 -12" transform="rotate(-90,166,34)"/><rect x="160" y="40" width="12" height="12" transform="rotate(0,166,46)"/><rect x="160" y="52" width="12" height="12" transform="rotate(0,166,58)"/><rect x="160" y="64" width="12" height="12" transform="rotate(0,166,70)"/><path d="M 160 88v 12h 6a 6 6, 0, 0, 0, 0 -12" transform="rotate(0,166,94)"/><path d="M 160 112v 12h 6a 6 6, 0, 0, 0, 0 -12" transform="rotate(180,166,118)"/><path d="M 160 136v 12h 6a 6 6, 0, 0, 0, 0 -12" transform="rotate(0,166,142)"/><path d="M 160 160v 12h 6a 6 6, 0, 0, 0, 0 -12" transform="rotate(180,166,166)"/><path d="M 160 196v 12h 6a 6 6, 0, 0, 0, 0 -12" transform="rotate(-90,166,202)"/><path d="M 160 208v 12h 12v -6a 6 6, 0, 0, 0, -6 -6" transform="rotate(90,166,214)"/><path d="M 160 268v 12h 12v -6a 6 6, 0, 0, 0, -6 -6" transform="rotate(0,166,274)"/><rect x="160" y="280" width="12" height="12" transform="rotate(0,166,286)"/><rect x="160" y="292" width="12" height="12" transform="rotate(0,166,298)"/><rect x="160" y="304" width="12" height="12" transform="rotate(0,166,310)"/><path d="M 160 316v 12h 12v -6a 6 6, 0, 0, 0, -6 -6" transform="rotate(180,166,322)"/><rect x="160" y="340" width="12" height="12" transform="rotate(0,166,346)"/><rect x="160" y="352" width="12" height="12" transform="rotate(0,166,358)"/><rect x="160" y="388" width="12" height="12" transform="rotate(0,166,394)"/><rect x="160" y="400" width="12" height="12" transform="rotate(0,166,406)"/><rect x="160" y="412" width="12" height="12" transform="rotate(0,166,418)"/><rect x="160" y="448" width="12" height="12" transform="rotate(0,166,454)"/><rect x="160" y="460" width="12" height="12" transform="rotate(0,166,466)"/><rect x="172" y="40" width="12" height="12" transform="rotate(0,178,46)"/><path d="M 172 64v 12h 12v -6a 6 6, 0, 0, 0, -6 -6" transform="rotate(0,178,70)"/><path d="M 172 76v 12h 6a 6 6, 0, 0, 0, 0 -12" transform="rotate(90,178,82)"/><path d="M 172 100v 12h 6a 6 6, 0, 0, 0, 0 -12" transform="rotate(-90,178,106)"/><path d="M 172 112v 12h 12v -6a 6 6, 0, 0, 0, -6 -6" transform="rotate(90,178,118)"/><rect x="172" y="160" width="12" height="12" transform="rotate(0,178,166)"/><path d="M 172 172v 12h 6a 6 6, 0, 0, 0, 0 -12" transform="rotate(90,178,178)"/><path d="M 172 220v 12h 12v -6a 6 6, 0, 0, 0, -6 -6" transform="rotate(-90,178,226)"/><path d="M 172 232v 12h 12v -6a 6 6, 0, 0, 0, -6 -6" transform="rotate(180,178,238)"/><path d="M 172 256v 12h 6a 6 6, 0, 0, 0, 0 -12" transform="rotate(180,178,262)"/><path d="M 172 292v 12h 6a 6 6, 0, 0, 0, 0 -12" transform="rotate(0,178,298)"/><rect x="172" y="316" width="12" height="12" transform="rotate(0,178,322)"/><rect x="172" y="328" width="12" height="12" transform="rotate(0,178,334)"/><rect x="172" y="340" width="12" height="12" transform="rotate(0,178,346)"/><path d="M 172 352v 12h 12v -6a 6 6, 0, 0, 0, -6 -6" transform="rotate(90,178,358)"/><path d="M 172 376v 12h 12v -6a 6 6, 0, 0, 0, -6 -6" transform="rotate(-90,178,382)"/><rect x="172" y="388" width="12" height="12" transform="rotate(0,178,394)"/><rect x="172" y="400" width="12" height="12" transform="rotate(0,178,406)"/><path d="M 172 412v 12h 12v -6a 6 6, 0, 0, 0, -6 -6" transform="rotate(90,178,418)"/><path d="M 172 436v 12h 12v -6a 6 6, 0, 0, 0, -6 -6" transform="rotate(-90,178,442)"/><rect x="172" y="448" width="12" height="12" transform="rotate(0,178,454)"/><path d="M 172 460v 12h 12v -6a 6 6, 0, 0, 0, -6 -6" transform="rotate(90,178,466)"/><rect x="184" y="40" width="12" height="12" transform="rotate(0,190,46)"/><path d="M 184 124v 12h 12v -6a 6 6, 0, 0, 0, -6 -6" transform="rotate(-90,190,130)"/><path d="M 184 136v 12h 6a 6 6, 0, 0, 0, 0 -12" transform="rotate(90,190,142)"/><rect x="184" y="160" width="12" height="12" transform="rotate(0,190,166)"/><path d="M 184 220v 12h 12v -6a 6 6, 0, 0, 0, -6 -6" transform="rotate(0,190,226)"/><rect x="184" y="232" width="12" height="12" transform="rotate(0,190,238)"/><rect x="184" y="244" width="12" height="12" transform="rotate(0,190,250)"/><rect x="184" y="256" width="12" height="12" transform="rotate(0,190,262)"/><rect x="184" y="268" width="12" height="12" transform="rotate(0,190,274)"/><path d="M 184 280v 12h 12v -6a 6 6, 0, 0, 0, -6 -6" transform="rotate(180,190,286)"/><path d="M 184 304v 12h 6a 6 6, 0, 0, 0, 0 -12" transform="rotate(-90,190,310)"/><rect x="184" y="316" width="12" height="12" transform="rotate(0,190,322)"/><path d="M 184 328v 12h 12v -6a 6 6, 0, 0, 0, -6 -6" transform="rotate(90,190,334)"/><path d="M 184 364v 12h 12v -6a 6 6, 0, 0, 0, -6 -6" transform="rotate(-90,190,370)"/><path d="M 184 376v 12h 12v -6a 6 6, 0, 0, 0, -6 -6" transform="rotate(90,190,382)"/><rect x="184" y="400" width="12" height="12" transform="rotate(0,190,406)"/><path d="M 184 424v 12h 12v -6a 6 6, 0, 0, 0, -6 -6" transform="rotate(-90,190,430)"/><rect x="184" y="436" width="12" height="12" transform="rotate(0,190,442)"/><rect x="184" y="448" width="12" height="12" transform="rotate(0,190,454)"/><path d="M 196 28v 12h 12v -6a 6 6, 0, 0, 0, -6 -6" transform="rotate(-90,202,34)"/><rect x="196" y="40" width="12" height="12" transform="rotate(0,202,46)"/><rect x="196" y="52" width="12" height="12" transform="rotate(0,202,58)"/><rect x="196" y="64" width="12" height="12" transform="rotate(0,202,70)"/><rect x="196" y="76" width="12" height="12" transform="rotate(0,202,82)"/><rect x="196" y="88" width="12" height="12" transform="rotate(0,202,94)"/><path d="M 196 100v 12h 6a 6 6, 0, 0, 0, 0 -12" transform="rotate(90,202,106)"/><path d="M 196 124v 12h 6a 6 6, 0, 0, 0, 0 -12" transform="rotate(0,202,130)"/><rect x="196" y="160" width="12" height="12" transform="rotate(0,202,166)"/><circle cx="202" cy="190" r="6" transform="rotate(0,202,190)"/><path d="M 196 208v 12h 6a 6 6, 0, 0, 0, 0 -12" transform="rotate(180,202,214)"/><rect x="196" y="232" width="12" height="12" transform="rotate(0,202,238)"/><rect x="196" y="256" width="12" height="12" transform="rotate(0,202,262)"/><rect x="196" y="268" width="12" height="12" transform="rotate(0,202,274)"/><rect x="196" y="280" width="12" height="12" transform="rotate(0,202,286)"/><path d="M 196 340v 12h 12v -6a 6 6, 0, 0, 0, -6 -6" transform="rotate(-90,202,346)"/><rect x="196" y="352" width="12" height="12" transform="rotate(0,202,358)"/><rect x="196" y="364" width="12" height="12" transform="rotate(0,202,370)"/><path d="M 196 388v 12h 6a 6 6, 0, 0, 0, 0 -12" transform="rotate(-90,202,394)"/><path d="M 196 400v 12h 12v -6a 6 6, 0, 0, 0, -6 -6" transform="rotate(90,202,406)"/><path d="M 196 424v 12h 6a 6 6, 0, 0, 0, 0 -12" transform="rotate(0,202,430)"/><rect x="196" y="448" width="12" height="12" transform="rotate(0,202,454)"/><path d="M 196 460v 12h 6a 6 6, 0, 0, 0, 0 -12" transform="rotate(90,202,466)"/><path d="M 208 28v 12h 6a 6 6, 0, 0, 0, 0 -12" transform="rotate(0,214,34)"/><rect x="208" y="88" width="12" height="12" transform="rotate(0,214,94)"/><circle cx="214" cy="118" r="6" transform="rotate(0,214,118)"/><rect x="208" y="160" width="12" height="12" transform="rotate(0,214,166)"/><path d="M 208 208v 12h 6a 6 6, 0, 0, 0, 0 -12" transform="rotate(0,214,214)"/><rect x="208" y="232" width="12" height="12" transform="rotate(0,214,238)"/><rect x="208" y="244" width="12" height="12" transform="rotate(0,214,250)"/><rect x="208" y="256" width="12" height="12" transform="rotate(0,214,262)"/><rect x="208" y="280" width="12" height="12" transform="rotate(0,214,286)"/><rect x="208" y="292" width="12" height="12" transform="rotate(0,214,298)"/><rect x="208" y="304" width="12" height="12" transform="rotate(0,214,310)"/><path d="M 208 316v 12h 6a 6 6, 0, 0, 0, 0 -12" transform="rotate(90,214,322)"/><rect x="208" y="340" width="12" height="12" transform="rotate(0,214,346)"/><rect x="208" y="364" width="12" height="12" transform="rotate(0,214,370)"/><path d="M 208 448v 12h 6a 6 6, 0, 0, 0, 0 -12" transform="rotate(0,214,454)"/><circle cx="226" cy="58" r="6" transform="rotate(0,226,58)"/><path d="M 220 76v 12h 12v -6a 6 6, 0, 0, 0, -6 -6" transform="rotate(-90,226,82)"/><rect x="220" y="88" width="12" height="12" transform="rotate(0,226,94)"/><path d="M 220 100v 12h 6a 6 6, 0, 0, 0, 0 -12" transform="rotate(90,226,106)"/><path d="M 220 160v 12h 6a 6 6, 0, 0, 0, 0 -12" transform="rotate(0,226,166)"/><rect x="220" y="232" width="12" height="12" transform="rotate(0,226,238)"/><rect x="220" y="244" width="12" height="12" transform="rotate(0,226,250)"/><path d="M 220 256v 12h 12v -6a 6 6, 0, 0, 0, -6 -6" transform="rotate(90,226,262)"/><rect x="220" y="280" width="12" height="12" transform="rotate(0,226,286)"/><path d="M 220 328v 12h 12v -6a 6 6, 0, 0, 0, -6 -6" transform="rotate(-90,226,334)"/><rect x="220" y="340" width="12" height="12" transform="rotate(0,226,346)"/><rect x="220" y="364" width="12" height="12" transform="rotate(0,226,370)"/><rect x="220" y="376" width="12" height="12" transform="rotate(0,226,382)"/><rect x="220" y="388" width="12" height="12" transform="rotate(0,226,394)"/><rect x="220" y="400" width="12" height="12" transform="rotate(0,226,406)"/><path d="M 220 412v 12h 6a 6 6, 0, 0, 0, 0 -12" transform="rotate(90,226,418)"/><circle cx="226" cy="442" r="6" transform="rotate(0,226,442)"/><circle cx="226" cy="466" r="6" transform="rotate(0,226,466)"/><path d="M 232 64v 12h 6a 6 6, 0, 0, 0, 0 -12" transform="rotate(-90,238,70)"/><rect x="232" y="76" width="12" height="12" transform="rotate(0,238,82)"/><rect x="232" y="88" width="12" height="12" transform="rotate(0,238,94)"/><path d="M 232 136v 12h 6a 6 6, 0, 0, 0, 0 -12" transform="rotate(180,238,142)"/><path d="M 232 172v 12h 6a 6 6, 0, 0, 0, 0 -12" transform="rotate(180,238,178)"/><path d="M 232 196v 12h 12v -6a 6 6, 0, 0, 0, -6 -6" transform="rotate(-90,238,202)"/><rect x="232" y="208" width="12" height="12" transform="rotate(0,238,214)"/><rect x="232" y="220" width="12" height="12" transform="rotate(0,238,226)"/><rect x="232" y="232" width="12" height="12" transform="rotate(0,238,238)"/><path d="M 232 268v 12h 12v -6a 6 6, 0, 0, 0, -6 -6" transform="rotate(-90,238,274)"/><rect x="232" y="280" width="12" height="12" transform="rotate(0,238,286)"/><path d="M 232 292v 12h 6a 6 6, 0, 0, 0, 0 -12" transform="rotate(90,238,298)"/><path d="M 232 316v 12h 6a 6 6, 0, 0, 0, 0 -12" transform="rotate(-90,238,322)"/><rect x="232" y="328" width="12" height="12" transform="rotate(0,238,334)"/><rect x="232" y="340" width="12" height="12" transform="rotate(0,238,346)"/><path d="M 232 364v 12h 6a 6 6, 0, 0, 0, 0 -12" transform="rotate(0,238,370)"/><rect x="232" y="400" width="12" height="12" transform="rotate(0,238,406)"/><path d="M 244 76v 12h 12v -6a 6 6, 0, 0, 0, -6 -6" transform="rotate(0,250,82)"/><rect x="244" y="88" width="12" height="12" transform="rotate(0,250,94)"/><path d="M 244 100v 12h 6a 6 6, 0, 0, 0, 0 -12" transform="rotate(90,250,106)"/><path d="M 244 124v 12h 12v -6a 6 6, 0, 0, 0, -6 -6" transform="rotate(-90,250,130)"/><rect x="244" y="136" width="12" height="12" transform="rotate(0,250,142)"/><path d="M 244 148v 12h 6a 6 6, 0, 0, 0, 0 -12" transform="rotate(90,250,154)"/><rect x="244" y="172" width="12" height="12" transform="rotate(0,250,178)"/><rect x="244" y="196" width="12" height="12" transform="rotate(0,250,202)"/><rect x="244" y="208" width="12" height="12" transform="rotate(0,250,214)"/><rect x="244" y="220" width="12" height="12" transform="rotate(0,250,226)"/><rect x="244" y="232" width="12" height="12" transform="rotate(0,250,238)"/><path d="M 244 244v 12h 12v -6a 6 6, 0, 0, 0, -6 -6" transform="rotate(180,250,250)"/><path d="M 244 268v 12h 6a 6 6, 0, 0, 0, 0 -12" transform="rotate(0,250,274)"/><path d="M 244 328v 12h 12v -6a 6 6, 0, 0, 0, -6 -6" transform="rotate(0,250,334)"/><rect x="244" y="340" width="12" height="12" transform="rotate(0,250,346)"/><path d="M 244 352v 12h 6a 6 6, 0, 0, 0, 0 -12" transform="rotate(90,250,358)"/><path d="M 244 376v 12h 6a 6 6, 0, 0, 0, 0 -12" transform="rotate(-90,250,382)"/><rect x="244" y="388" width="12" height="12" transform="rotate(0,250,394)"/><rect x="244" y="400" width="12" height="12" transform="rotate(0,250,406)"/><circle cx="250" cy="430" r="6" transform="rotate(0,250,430)"/><path d="M 244 448v 12h 6a 6 6, 0, 0, 0, 0 -12" transform="rotate(-90,250,454)"/><path d="M 244 460v 12h 12v -6a 6 6, 0, 0, 0, -6 -6" transform="rotate(180,250,466)"/><path d="M 256 40v 12h 12v -6a 6 6, 0, 0, 0, -6 -6" transform="rotate(-90,262,46)"/><rect x="256" y="52" width="12" height="12" transform="rotate(0,262,58)"/><path d="M 256 64v 12h 12v -6a 6 6, 0, 0, 0, -6 -6" transform="rotate(180,262,70)"/><rect x="256" y="88" width="12" height="12" transform="rotate(0,262,94)"/><rect x="256" y="124" width="12" height="12" transform="rotate(0,262,130)"/><path d="M 256 160v 12h 6a 6 6, 0, 0, 0, 0 -12" transform="rotate(-90,262,166)"/><rect x="256" y="172" width="12" height="12" transform="rotate(0,262,178)"/><path d="M 256 196v 12h 12v -6a 6 6, 0, 0, 0, -6 -6" transform="rotate(0,262,202)"/><rect x="256" y="208" width="12" height="12" transform="rotate(0,262,214)"/><path d="M 256 244v 12h 12v -6a 6 6, 0, 0, 0, -6 -6" transform="rotate(0,262,250)"/><path d="M 256 256v 12h 12v -6a 6 6, 0, 0, 0, -6 -6" transform="rotate(180,262,262)"/><circle cx="262" cy="286" r="6" transform="rotate(0,262,286)"/><circle cx="262" cy="322" r="6" transform="rotate(0,262,322)"/><circle cx="262" cy="370" r="6" transform="rotate(0,262,370)"/><rect x="256" y="388" width="12" height="12" transform="rotate(0,262,394)"/><rect x="256" y="400" width="12" height="12" transform="rotate(0,262,406)"/><rect x="256" y="460" width="12" height="12" transform="rotate(0,262,466)"/><path d="M 268 40v 12h 6a 6 6, 0, 0, 0, 0 -12" transform="rotate(0,274,46)"/><path d="M 268 64v 12h 6a 6 6, 0, 0, 0, 0 -12" transform="rotate(0,274,70)"/><path d="M 268 88v 12h 12v -6a 6 6, 0, 0, 0, -6 -6" transform="rotate(0,274,94)"/><path d="M 268 100v 12h 6a 6 6, 0, 0, 0, 0 -12" transform="rotate(90,274,106)"/><rect x="268" y="124" width="12" height="12" transform="rotate(0,274,130)"/><circle cx="274" cy="154" r="6" transform="rotate(0,274,154)"/><path d="M 268 172v 12h 6a 6 6, 0, 0, 0, 0 -12" transform="rotate(0,274,178)"/><rect x="268" y="208" width="12" height="12" transform="rotate(0,274,214)"/><path d="M 268 256v 12h 6a 6 6, 0, 0, 0, 0 -12" transform="rotate(0,274,262)"/><circle cx="274" cy="298" r="6" transform="rotate(0,274,298)"/><path d="M 268 328v 12h 6a 6 6, 0, 0, 0, 0 -12" transform="rotate(-90,274,334)"/><path d="M 268 340v 12h 12v -6a 6 6, 0, 0, 0, -6 -6" transform="rotate(180,274,346)"/><path d="M 268 376v 12h 6a 6 6, 0, 0, 0, 0 -12" transform="rotate(-90,274,382)"/><rect x="268" y="388" width="12" height="12" transform="rotate(0,274,394)"/><rect x="268" y="400" width="12" height="12" transform="rotate(0,274,406)"/><rect x="268" y="412" width="12" height="12" transform="rotate(0,274,418)"/><rect x="268" y="424" width="12" height="12" transform="rotate(0,274,430)"/><path d="M 268 436v 12h 12v -6a 6 6, 0, 0, 0, -6 -6" transform="rotate(180,274,442)"/><path d="M 268 460v 12h 6a 6 6, 0, 0, 0, 0 -12" transform="rotate(0,274,466)"/><path d="M 280 52v 12h 6a 6 6, 0, 0, 0, 0 -12" transform="rotate(180,286,58)"/><path d="M 280 76v 12h 6a 6 6, 0, 0, 0, 0 -12" transform="rotate(180,286,82)"/><path d="M 280 112v 12h 6a 6 6, 0, 0, 0, 0 -12" transform="rotate(-90,286,118)"/><rect x="280" y="124" width="12" height="12" transform="rotate(0,286,130)"/><path d="M 280 136v 12h 6a 6 6, 0, 0, 0, 0 -12" transform="rotate(90,286,142)"/><circle cx="286" cy="190" r="6" transform="rotate(0,286,190)"/><rect x="280" y="208" width="12" height="12" transform="rotate(0,286,214)"/><circle cx="286" cy="250" r="6" transform="rotate(0,286,250)"/><circle cx="286" cy="310" r="6" transform="rotate(0,286,310)"/><path d="M 280 340v 12h 6a 6 6, 0, 0, 0, 0 -12" transform="rotate(0,286,346)"/><path d="M 280 400v 12h 6a 6 6, 0, 0, 0, 0 -12" transform="rotate(0,286,406)"/><rect x="280" y="436" width="12" height="12" transform="rotate(0,286,442)"/><path d="M 292 28v 12h 12v -6a 6 6, 0, 0, 0, -6 -6" transform="rotate(-90,298,34)"/><rect x="292" y="40" width="12" height="12" transform="rotate(0,298,46)"/><rect x="292" y="52" width="12" height="12" transform="rotate(0,298,58)"/><rect x="292" y="64" width="12" height="12" transform="rotate(0,298,70)"/><path d="M 292 76v 12h 12v -6a 6 6, 0, 0, 0, -6 -6" transform="rotate(90,298,82)"/><circle cx="298" cy="106" r="6" transform="rotate(0,298,106)"/><path d="M 292 148v 12h 6a 6 6, 0, 0, 0, 0 -12" transform="rotate(180,298,154)"/><path d="M 292 208v 12h 6a 6 6, 0, 0, 0, 0 -12" transform="rotate(0,298,214)"/><circle cx="298" cy="262" r="6" transform="rotate(0,298,262)"/><path d="M 292 280v 12h 12v -6a 6 6, 0, 0, 0, -6 -6" transform="rotate(-90,298,286)"/><path d="M 292 292v 12h 12v -6a 6 6, 0, 0, 0, -6 -6" transform="rotate(180,298,298)"/><circle cx="298" cy="358" r="6" transform="rotate(0,298,358)"/><path d="M 292 388v 12h 6a 6 6, 0, 0, 0, 0 -12" transform="rotate(180,298,394)"/><path d="M 292 424v 12h 6a 6 6, 0, 0, 0, 0 -12" transform="rotate(-90,298,430)"/><rect x="292" y="436" width="12" height="12" transform="rotate(0,298,442)"/><rect x="292" y="448" width="12" height="12" transform="rotate(0,298,454)"/><path d="M 292 460v 12h 6a 6 6, 0, 0, 0, 0 -12" transform="rotate(90,298,466)"/><path d="M 304 28v 12h 12v -6a 6 6, 0, 0, 0, -6 -6" transform="rotate(0,310,34)"/><path d="M 304 40v 12h 12v -6a 6 6, 0, 0, 0, -6 -6" transform="rotate(90,310,46)"/><path d="M 304 64v 12h 6a 6 6, 0, 0, 0, 0 -12" transform="rotate(0,310,70)"/><path d="M 304 124v 12h 6a 6 6, 0, 0, 0, 0 -12" transform="rotate(-90,310,130)"/><rect x="304" y="136" width="12" height="12" transform="rotate(0,310,142)"/><rect x="304" y="148" width="12" height="12" transform="rotate(0,310,154)"/><path d="M 304 184v 12h 12v -6a 6 6, 0, 0, 0, -6 -6" transform="rotate(-90,310,190)"/><path d="M 304 196v 12h 12v -6a 6 6, 0, 0, 0, -6 -6" transform="rotate(180,310,202)"/><path d="M 304 244v 12h 6a 6 6, 0, 0, 0, 0 -12" transform="rotate(180,310,250)"/><path d="M 304 268v 12h 12v -6a 6 6, 0, 0, 0, -6 -6" transform="rotate(-90,310,274)"/><rect x="304" y="280" width="12" height="12" transform="rotate(0,310,286)"/><rect x="304" y="292" width="12" height="12" transform="rotate(0,310,298)"/><circle cx="310" cy="346" r="6" transform="rotate(0,310,346)"/><path d="M 304 376v 12h 6a 6 6, 0, 0, 0, 0 -12" transform="rotate(-90,310,382)"/><rect x="304" y="388" width="12" height="12" transform="rotate(0,310,394)"/><path d="M 304 400v 12h 6a 6 6, 0, 0, 0, 0 -12" transform="rotate(90,310,406)"/><circle cx="322" cy="58" r="6" transform="rotate(0,322,58)"/><circle cx="322" cy="106" r="6" transform="rotate(0,322,106)"/><path d="M 316 136v 12h 12v -6a 6 6, 0, 0, 0, -6 -6" transform="rotate(0,322,142)"/><rect x="316" y="148" width="12" height="12" transform="rotate(0,322,154)"/><rect x="316" y="160" width="12" height="12" transform="rotate(0,322,166)"/><rect x="316" y="172" width="12" height="12" transform="rotate(0,322,178)"/><rect x="316" y="184" width="12" height="12" transform="rotate(0,322,190)"/><path d="M 316 196v 12h 12v -6a 6 6, 0, 0, 0, -6 -6" transform="rotate(90,322,202)"/><path d="M 316 220v 12h 6a 6 6, 0, 0, 0, 0 -12" transform="rotate(180,322,226)"/><path d="M 316 244v 12h 12v -6a 6 6, 0, 0, 0, -6 -6" transform="rotate(0,322,250)"/><rect x="316" y="256" width="12" height="12" transform="rotate(0,322,262)"/><path d="M 316 268v 12h 12v -6a 6 6, 0, 0, 0, -6 -6" transform="rotate(90,322,274)"/><path d="M 316 292v 12h 6a 6 6, 0, 0, 0, 0 -12" transform="rotate(0,322,298)"/><circle cx="322" cy="322" r="6" transform="rotate(0,322,322)"/><rect x="316" y="388" width="12" height="12" transform="rotate(0,322,394)"/><path d="M 316 424v 12h 12v -6a 6 6, 0, 0, 0, -6 -6" transform="rotate(-90,322,430)"/><rect x="316" y="436" width="12" height="12" transform="rotate(0,322,442)"/><path d="M 316 448v 12h 6a 6 6, 0, 0, 0, 0 -12" transform="rotate(90,322,454)"/><path d="M 328 28v 12h 12v -6a 6 6, 0, 0, 0, -6 -6" transform="rotate(-90,334,34)"/><path d="M 328 40v 12h 6a 6 6, 0, 0, 0, 0 -12" transform="rotate(90,334,46)"/><path d="M 328 64v 12h 6a 6 6, 0, 0, 0, 0 -12" transform="rotate(-90,334,70)"/><path d="M 328 76v 12h 12v -6a 6 6, 0, 0, 0, -6 -6" transform="rotate(180,334,82)"/><path d="M 328 124v 12h 6a 6 6, 0, 0, 0, 0 -12" transform="rotate(180,334,130)"/><rect x="328" y="148" width="12" height="12" transform="rotate(0,334,154)"/><rect x="328" y="184" width="12" height="12" transform="rotate(0,334,190)"/><path d="M 328 220v 12h 12v -6a 6 6, 0, 0, 0, -6 -6" transform="rotate(0,334,226)"/><path d="M 328 232v 12h 12v -6a 6 6, 0, 0, 0, -6 -6" transform="rotate(180,334,238)"/><path d="M 328 280v 12h 6a 6 6, 0, 0, 0, 0 -12" transform="rotate(180,334,286)"/><circle cx="334" cy="310" r="6" transform="rotate(0,334,310)"/><path d="M 328 328v 12h 12v -6a 6 6, 0, 0, 0, -6 -6" transform="rotate(-90,334,334)"/><rect x="328" y="340" width="12" height="12" transform="rotate(0,334,346)"/><rect x="328" y="352" width="12" height="12" transform="rotate(0,334,358)"/><rect x="328" y="364" width="12" height="12" transform="rotate(0,334,370)"/><rect x="328" y="376" width="12" height="12" transform="rotate(0,334,382)"/><rect x="328" y="388" width="12" height="12" transform="rotate(0,334,394)"/><rect x="328" y="424" width="12" height="12" transform="rotate(0,334,430)"/><rect x="340" y="28" width="12" height="12" transform="rotate(0,346,34)"/><path d="M 340 76v 12h 6a 6 6, 0, 0, 0, 0 -12" transform="rotate(0,346,82)"/><path d="M 340 100v 12h 6a 6 6, 0, 0, 0, 0 -12" transform="rotate(-90,346,106)"/><rect x="340" y="112" width="12" height="12" transform="rotate(0,346,118)"/><rect x="340" y="124" width="12" height="12" transform="rotate(0,346,130)"/><rect x="340" y="136" width="12" height="12" transform="rotate(0,346,142)"/><rect x="340" y="148" width="12" height="12" transform="rotate(0,346,154)"/><rect x="340" y="160" width="12" height="12" transform="rotate(0,346,166)"/><rect x="340" y="172" width="12" height="12" transform="rotate(0,346,178)"/><rect x="340" y="184" width="12" height="12" transform="rotate(0,346,190)"/><rect x="340" y="196" width="12" height="12" transform="rotate(0,346,202)"/><path d="M 340 208v 12h 6a 6 6, 0, 0, 0, 0 -12" transform="rotate(90,346,214)"/><rect x="340" y="232" width="12" height="12" transform="rotate(0,346,238)"/><rect x="340" y="244" width="12" height="12" transform="rotate(0,346,250)"/><rect x="340" y="256" width="12" height="12" transform="rotate(0,346,262)"/><rect x="340" y="268" width="12" height="12" transform="rotate(0,346,274)"/><rect x="340" y="280" width="12" height="12" transform="rotate(0,346,286)"/><path d="M 340 292v 12h 12v -6a 6 6, 0, 0, 0, -6 -6" transform="rotate(180,346,298)"/><path d="M 340 328v 12h 12v -6a 6 6, 0, 0, 0, -6 -6" transform="rotate(0,346,334)"/><path d="M 340 340v 12h 12v -6a 6 6, 0, 0, 0, -6 -6" transform="rotate(90,346,346)"/><path d="M 340 388v 12h 6a 6 6, 0, 0, 0, 0 -12" transform="rotate(0,346,394)"/><path d="M 340 424v 12h 6a 6 6, 0, 0, 0, 0 -12" transform="rotate(0,346,430)"/><path d="M 340 448v 12h 12v -6a 6 6, 0, 0, 0, -6 -6" transform="rotate(-90,346,454)"/><path d="M 340 460v 12h 12v -6a 6 6, 0, 0, 0, -6 -6" transform="rotate(180,346,466)"/><rect x="352" y="28" width="12" height="12" transform="rotate(0,358,34)"/><path d="M 352 52v 12h 6a 6 6, 0, 0, 0, 0 -12" transform="rotate(-90,358,58)"/><path d="M 352 64v 12h 6a 6 6, 0, 0, 0, 0 -12" transform="rotate(90,358,70)"/><path d="M 352 136v 12h 6a 6 6, 0, 0, 0, 0 -12" transform="rotate(0,358,142)"/><rect x="352" y="160" width="12" height="12" transform="rotate(0,358,166)"/><rect x="352" y="172" width="12" height="12" transform="rotate(0,358,178)"/><path d="M 352 220v 12h 6a 6 6, 0, 0, 0, 0 -12" transform="rotate(-90,358,226)"/><rect x="352" y="232" width="12" height="12" transform="rotate(0,358,238)"/><path d="M 352 280v 12h 12v -6a 6 6, 0, 0, 0, -6 -6" transform="rotate(0,358,286)"/><rect x="352" y="292" width="12" height="12" transform="rotate(0,358,298)"/><path d="M 352 364v 12h 12v -6a 6 6, 0, 0, 0, -6 -6" transform="rotate(-90,358,370)"/><path d="M 352 376v 12h 12v -6a 6 6, 0, 0, 0, -6 -6" transform="rotate(180,358,382)"/><rect x="352" y="448" width="12" height="12" transform="rotate(0,358,454)"/><path d="M 352 460v 12h 12v -6a 6 6, 0, 0, 0, -6 -6" transform="rotate(90,358,466)"/><path d="M 364 28v 12h 6a 6 6, 0, 0, 0, 0 -12" transform="rotate(0,370,34)"/><path d="M 364 76v 12h 6a 6 6, 0, 0, 0, 0 -12" transform="rotate(-90,370,82)"/><rect x="364" y="88" width="12" height="12" transform="rotate(0,370,94)"/><rect x="364" y="100" width="12" height="12" transform="rotate(0,370,106)"/><rect x="364" y="112" width="12" height="12" transform="rotate(0,370,118)"/><path d="M 364 124v 12h 12v -6a 6 6, 0, 0, 0, -6 -6" transform="rotate(180,370,130)"/><path d="M 364 148v 12h 12v -6a 6 6, 0, 0, 0, -6 -6" transform="rotate(-90,370,154)"/><rect x="364" y="160" width="12" height="12" transform="rotate(0,370,166)"/><rect x="364" y="172" width="12" height="12" transform="rotate(0,370,178)"/><path d="M 364 184v 12h 6a 6 6, 0, 0, 0, 0 -12" transform="rotate(90,370,190)"/><rect x="364" y="232" width="12" height="12" transform="rotate(0,370,238)"/><path d="M 364 268v 12h 6a 6 6, 0, 0, 0, 0 -12" transform="rotate(180,370,274)"/><path d="M 364 292v 12h 6a 6 6, 0, 0, 0, 0 -12" transform="rotate(0,370,298)"/><path d="M 364 316v 12h 6a 6 6, 0, 0, 0, 0 -12" transform="rotate(-90,370,322)"/><rect x="364" y="328" width="12" height="12" transform="rotate(0,370,334)"/><path d="M 364 340v 12h 12v -6a 6 6, 0, 0, 0, -6 -6" transform="rotate(180,370,346)"/><rect x="364" y="364" width="12" height="12" transform="rotate(0,370,370)"/><rect x="364" y="376" width="12" height="12" transform="rotate(0,370,382)"/><rect x="364" y="388" width="12" height="12" transform="rotate(0,370,394)"/><rect x="364" y="400" width="12" height="12" transform="rotate(0,370,406)"/><path d="M 364 412v 12h 12v -6a 6 6, 0, 0, 0, -6 -6" transform="rotate(180,370,418)"/><path d="M 364 436v 12h 6a 6 6, 0, 0, 0, 0 -12" transform="rotate(-90,370,442)"/><rect x="364" y="448" width="12" height="12" transform="rotate(0,370,454)"/><rect x="376" y="124" width="12" height="12" transform="rotate(0,382,130)"/><rect x="376" y="136" width="12" height="12" transform="rotate(0,382,142)"/><rect x="376" y="148" width="12" height="12" transform="rotate(0,382,154)"/><rect x="376" y="160" width="12" height="12" transform="rotate(0,382,166)"/><rect x="376" y="232" width="12" height="12" transform="rotate(0,382,238)"/><path d="M 376 256v 12h 6a 6 6, 0, 0, 0, 0 -12" transform="rotate(-90,382,262)"/><rect x="376" y="268" width="12" height="12" transform="rotate(0,382,274)"/><circle cx="382" cy="310" r="6" transform="rotate(0,382,310)"/><path d="M 376 340v 12h 12v -6a 6 6, 0, 0, 0, -6 -6" transform="rotate(0,382,346)"/><rect x="376" y="352" width="12" height="12" transform="rotate(0,382,358)"/><rect x="376" y="364" width="12" height="12" transform="rotate(0,382,370)"/><rect x="376" y="412" width="12" height="12" transform="rotate(0,382,418)"/><rect x="376" y="448" width="12" height="12" transform="rotate(0,382,454)"/><rect x="388" y="124" width="12" height="12" transform="rotate(0,394,130)"/><rect x="388" y="136" width="12" height="12" transform="rotate(0,394,142)"/><path d="M 388 160v 12h 12v -6a 6 6, 0, 0, 0, -6 -6" transform="rotate(0,394,166)"/><rect x="388" y="172" width="12" height="12" transform="rotate(0,394,178)"/><path d="M 388 184v 12h 6a 6 6, 0, 0, 0, 0 -12" transform="rotate(90,394,190)"/><path d="M 388 220v 12h 6a 6 6, 0, 0, 0, 0 -12" transform="rotate(-90,394,226)"/><rect x="388" y="232" width="12" height="12" transform="rotate(0,394,238)"/><rect x="388" y="268" width="12" height="12" transform="rotate(0,394,274)"/><circle cx="394" cy="298" r="6" transform="rotate(0,394,298)"/><circle cx="394" cy="334" r="6" transform="rotate(0,394,334)"/><rect x="388" y="364" width="12" height="12" transform="rotate(0,394,370)"/><circle cx="394" cy="394" r="6" transform="rotate(0,394,394)"/><rect x="388" y="412" width="12" height="12" transform="rotate(0,394,418)"/><path d="M 388 424v 12h 6a 6 6, 0, 0, 0, 0 -12" transform="rotate(90,394,430)"/><rect x="388" y="448" width="12" height="12" transform="rotate(0,394,454)"/><path d="M 388 460v 12h 12v -6a 6 6, 0, 0, 0, -6 -6" transform="rotate(180,394,466)"/><rect x="400" y="124" width="12" height="12" transform="rotate(0,406,130)"/><path d="M 400 136v 12h 12v -6a 6 6, 0, 0, 0, -6 -6" transform="rotate(90,406,142)"/><circle cx="406" cy="214" r="6" transform="rotate(0,406,214)"/><path d="M 400 232v 12h 12v -6a 6 6, 0, 0, 0, -6 -6" transform="rotate(0,406,238)"/><path d="M 400 244v 12h 6a 6 6, 0, 0, 0, 0 -12" transform="rotate(90,406,250)"/><rect x="400" y="268" width="12" height="12" transform="rotate(0,406,274)"/><path d="M 400 316v 12h 6a 6 6, 0, 0, 0, 0 -12" transform="rotate(180,406,322)"/><rect x="400" y="364" width="12" height="12" transform="rotate(0,406,370)"/><rect x="400" y="412" width="12" height="12" transform="rotate(0,406,418)"/><rect x="400" y="448" width="12" height="12" transform="rotate(0,406,454)"/><rect x="400" y="460" width="12" height="12" transform="rotate(0,406,466)"/><rect x="412" y="124" width="12" height="12" transform="rotate(0,418,130)"/><circle cx="418" cy="166" r="6" transform="rotate(0,418,166)"/><path d="M 412 220v 12h 6a 6 6, 0, 0, 0, 0 -12" transform="rotate(180,418,226)"/><path d="M 412 268v 12h 12v -6a 6 6, 0, 0, 0, -6 -6" transform="rotate(0,418,274)"/><rect x="412" y="280" width="12" height="12" transform="rotate(0,418,286)"/><rect x="412" y="292" width="12" height="12" transform="rotate(0,418,298)"/><rect x="412" y="304" width="12" height="12" transform="rotate(0,418,310)"/><rect x="412" y="316" width="12" height="12" transform="rotate(0,418,322)"/><rect x="412" y="328" width="12" height="12" transform="rotate(0,418,334)"/><rect x="412" y="340" width="12" height="12" transform="rotate(0,418,346)"/><rect x="412" y="352" width="12" height="12" transform="rotate(0,418,358)"/><rect x="412" y="364" width="12" height="12" transform="rotate(0,418,370)"/><rect x="412" y="376" width="12" height="12" transform="rotate(0,418,382)"/><rect x="412" y="388" width="12" height="12" transform="rotate(0,418,394)"/><rect x="412" y="400" width="12" height="12" transform="rotate(0,418,406)"/><rect x="412" y="412" width="12" height="12" transform="rotate(0,418,418)"/><path d="M 412 436v 12h 6a 6 6, 0, 0, 0, 0 -12" transform="rotate(-90,418,442)"/><rect x="412" y="448" width="12" height="12" transform="rotate(0,418,454)"/><path d="M 412 460v 12h 12v -6a 6 6, 0, 0, 0, -6 -6" transform="rotate(90,418,466)"/><rect x="424" y="124" width="12" height="12" transform="rotate(0,430,130)"/><path d="M 424 172v 12h 6a 6 6, 0, 0, 0, 0 -12" transform="rotate(-90,430,178)"/><path d="M 424 184v 12h 12v -6a 6 6, 0, 0, 0, -6 -6" transform="rotate(180,430,190)"/><path d="M 424 220v 12h 6a 6 6, 0, 0, 0, 0 -12" transform="rotate(0,430,226)"/><path d="M 424 388v 12h 6a 6 6, 0, 0, 0, 0 -12" transform="rotate(0,430,394)"/><path d="M 424 412v 12h 12v -6a 6 6, 0, 0, 0, -6 -6" transform="rotate(0,430,418)"/><path d="M 424 424v 12h 6a 6 6, 0, 0, 0, 0 -12" transform="rotate(90,430,430)"/><path d="M 424 448v 12h 6a 6 6, 0, 0, 0, 0 -12" transform="rotate(0,430,454)"/><rect x="436" y="124" width="12" height="12" transform="rotate(0,442,130)"/><path d="M 436 160v 12h 6a 6 6, 0, 0, 0, 0 -12" transform="rotate(180,442,166)"/><path d="M 436 184v 12h 6a 6 6, 0, 0, 0, 0 -12" transform="rotate(0,442,190)"/><circle cx="442" cy="214" r="6" transform="rotate(0,442,214)"/><path d="M 436 232v 12h 12v -6a 6 6, 0, 0, 0, -6 -6" transform="rotate(-90,442,238)"/><path d="M 436 244v 12h 12v -6a 6 6, 0, 0, 0, -6 -6" transform="rotate(180,442,250)"/><path d="M 436 268v 12h 6a 6 6, 0, 0, 0, 0 -12" transform="rotate(-90,442,274)"/><rect x="436" y="280" width="12" height="12" transform="rotate(0,442,286)"/><rect x="436" y="292" width="12" height="12" transform="rotate(0,442,298)"/><rect x="436" y="304" width="12" height="12" transform="rotate(0,442,310)"/><rect x="436" y="316" width="12" height="12" transform="rotate(0,442,322)"/><rect x="436" y="328" width="12" height="12" transform="rotate(0,442,334)"/><rect x="436" y="340" width="12" height="12" transform="rotate(0,442,346)"/><rect x="436" y="352" width="12" height="12" transform="rotate(0,442,358)"/><rect x="436" y="364" width="12" height="12" transform="rotate(0,442,370)"/><path d="M 436 376v 12h 6a 6 6, 0, 0, 0, 0 -12" transform="rotate(90,442,382)"/><circle cx="442" cy="406" r="6" transform="rotate(0,442,406)"/><path d="M 436 460v 12h 6a 6 6, 0, 0, 0, 0 -12" transform="rotate(180,442,466)"/><path d="M 448 124v 12h 6a 6 6, 0, 0, 0, 0 -12" transform="rotate(0,454,130)"/><path d="M 448 148v 12h 12v -6a 6 6, 0, 0, 0, -6 -6" transform="rotate(-90,454,154)"/><rect x="448" y="160" width="12" height="12" transform="rotate(0,454,166)"/><path d="M 448 172v 12h 12v -6a 6 6, 0, 0, 0, -6 -6" transform="rotate(180,454,178)"/><path d="M 448 220v 12h 12v -6a 6 6, 0, 0, 0, -6 -6" transform="rotate(-90,454,226)"/><rect x="448" y="232" width="12" height="12" transform="rotate(0,454,238)"/><path d="M 448 244v 12h 12v -6a 6 6, 0, 0, 0, -6 -6" transform="rotate(90,454,250)"/><path d="M 448 280v 12h 6a 6 6, 0, 0, 0, 0 -12" transform="rotate(0,454,286)"/><rect x="448" y="304" width="12" height="12" transform="rotate(0,454,310)"/><path d="M 448 352v 12h 12v -6a 6 6, 0, 0, 0, -6 -6" transform="rotate(0,454,358)"/><path d="M 448 364v 12h 12v -6a 6 6, 0, 0, 0, -6 -6" transform="rotate(90,454,370)"/><path d="M 448 388v 12h 6a 6 6, 0, 0, 0, 0 -12" transform="rotate(180,454,394)"/><rect x="448" y="460" width="12" height="12" transform="rotate(0,454,466)"/><path d="M 460 148v 12h 6a 6 6, 0, 0, 0, 0 -12" transform="rotate(0,466,154)"/><path d="M 460 172v 12h 6a 6 6, 0, 0, 0, 0 -12" transform="rotate(0,466,178)"/><path d="M 460 196v 12h 6a 6 6, 0, 0, 0, 0 -12" transform="rotate(-90,466,202)"/><rect x="460" y="208" width="12" height="12" transform="rotate(0,466,214)"/><path d="M 460 220v 12h 12v -6a 6 6, 0, 0, 0, -6 -6" transform="rotate(90,466,226)"/><path d="M 460 304v 12h 12v -6a 6 6, 0, 0, 0, -6 -6" transform="rotate(0,466,310)"/><rect x="460" y="316" width="12" height="12" transform="rotate(0,466,322)"/><rect x="460" y="328" width="12" height="12" transform="rotate(0,466,334)"/><path d="M 460 340v 12h 6a 6 6, 0, 0, 0, 0 -12" transform="rotate(90,466,346)"/><path d="M 460 376v 12h 6a 6 6, 0, 0, 0, 0 -12" transform="rotate(-90,466,382)"/><rect x="460" y="388" width="12" height="12" transform="rotate(0,466,394)"/><path d="M 460 400v 12h 6a 6 6, 0, 0, 0, 0 -12" transform="rotate(90,466,406)"/><path d="M 460 436v 12h 6a 6 6, 0, 0, 0, 0 -12" transform="rotate(-90,466,442)"/><rect x="460" y="448" width="12" height="12" transform="rotate(0,466,454)"/><path d="M 460 460v 12h 12v -6a 6 6, 0, 0, 0, -6 -6" transform="rotate(90,466,466)"/></clipPath><clipPath id="clip-path-corners-square-color-0-0"><path clip-rule="evenodd" d="M 28 58v 24a 30 30, 0, 0, 0, 30 30h 24a 30 30, 0, 0, 0, 30 -30v -24a 30 30, 0, 0, 0, -30 -30h -24a 30 30, 0, 0, 0, -30 30M 58 40h 24a 18 18, 0, 0, 1, 18 18v 24a 18 18, 0, 0, 1, -18 18h -24a 18 18, 0, 0, 1, -18 -18v -24a 18 18, 0, 0, 1, 18 -18" transform="rotate(0,70,70)"/></clipPath><clipPath id="clip-path-corners-dot-color-0-0"><circle cx="70" cy="70" r="18" transform="rotate(0,70,70)"/></clipPath><clipPath id="clip-path-corners-square-color-1-0"><path clip-rule="evenodd" d="M 388 58v 24a 30 30, 0, 0, 0, 30 30h 24a 30 30, 0, 0, 0, 30 -30v -24a 30 30, 0, 0, 0, -30 -30h -24a 30 30, 0, 0, 0, -30 30M 418 40h 24a 18 18, 0, 0, 1, 18 18v 24a 18 18, 0, 0, 1, -18 18h -24a 18 18, 0, 0, 1, -18 -18v -24a 18 18, 0, 0, 1, 18 -18" transform="rotate(90,430,70)"/></clipPath><clipPath id="clip-path-corners-dot-color-1-0"><circle cx="430" cy="70" r="18" transform="rotate(90,430,70)"/></clipPath><clipPath id="clip-path-corners-square-color-0-1"><path clip-rule="evenodd" d="M 28 418v 24a 30 30, 0, 0, 0, 30 30h 24a 30 30, 0, 0, 0, 30 -30v -24a 30 30, 0, 0, 0, -30 -30h -24a 30 30, 0, 0, 0, -30 30M 58 400h 24a 18 18, 0, 0, 1, 18 18v 24a 18 18, 0, 0, 1, -18 18h -24a 18 18, 0, 0, 1, -18 -18v -24a 18 18, 0, 0, 1, 18 -18" transform="rotate(-90,70,430)"/></clipPath><clipPath id="clip-path-corners-dot-color-0-1"><circle cx="70" cy="430" r="18" transform="rotate(-90,70,430)"/></clipPath></defs><rect x="0" y="0" height="500" width="500" clip-path="url('#clip-path-background-color')" fill="#fff"/><rect x="0" y="0" height="500" width="500" clip-path="url('#clip-path-dot-color')" fill="#000000"/><rect x="28" y="28" height="84" width="84" clip-path="url('#clip-path-corners-square-color-0-0')" fill="#000000"/><rect x="52" y="52" height="36" width="36" clip-path="url('#clip-path-corners-dot-color-0-0')" fill="#000000"/><rect x="388" y="28" height="84" width="84" clip-path="url('#clip-path-corners-square-color-1-0')" fill="#000000"/><rect x="412" y="52" height="36" width="36" clip-path="url('#clip-path-corners-dot-color-1-0')" fill="#000000"/><rect x="28" y="388" height="84" width="84" clip-path="url('#clip-path-corners-square-color-0-1')" fill="#000000"/><rect x="52" y="412" height="36" width="36" clip-path="url('#clip-path-corners-dot-color-0-1')" fill="#000000"/></svg>